PathFileType	4	(X/Y/Z)	/Users/itak/Documents/Research/Walk-IL/dataset/trc/00322_00011.trc
DataRate	CameraRate	NumFrames	NumMarkers	Units	OrigDataRate	OrigDataStartFrame	OrigNumFrames
100.000000	100.000000	4	57	mm	100.000000	0	537
Frame#	Time	LPSI			L3			STRN			T10			C7			CLAV			RBAK			LBAK			LSHO			LUPA			LAEL			LAOL			LWTS			LWPS			LFRA			LHPS			RSHO			RUPA			RAEL			RAOL			RWTS			RWPS			RFRA			RIFD			RHTS			RHPS			RBHD			LFHD			RFHD			LBHD			LHIP			RASI			LASI			LKNE			LTHI			LANK			LTIP			LTOE			LMT1			LMT5			LHEE			RKNE			RANK			RTIP			RTOE			RMT1			RMT5			RHEE			RPSI			RTHI			RHIP			LHTS			LIFD			*53			*54			*55			*56			
		X1	Y1	Z1	X2	Y2	Z2	X3	Y3	Z3	X4	Y4	Z4	X5	Y5	Z5	X6	Y6	Z6	X7	Y7	Z7	X8	Y8	Z8	X9	Y9	Z9	X10	Y10	Z10	X11	Y11	Z11	X12	Y12	Z12	X13	Y13	Z13	X14	Y14	Z14	X15	Y15	Z15	X16	Y16	Z16	X17	Y17	Z17	X18	Y18	Z18	X19	Y19	Z19	X20	Y20	Z20	X21	Y21	Z21	X22	Y22	Z22	X23	Y23	Z23	X24	Y24	Z24	X25	Y25	Z25	X26	Y26	Z26	X27	Y27	Z27	X28	Y28	Z28	X29	Y29	Z29	X30	Y30	Z30	X31	Y31	Z31	X32	Y32	Z32	X33	Y33	Z33	X34	Y34	Z34	X35	Y35	Z35	X36	Y36	Z36	X37	Y37	Z37	X38	Y38	Z38	X39	Y39	Z39	X40	Y40	Z40	X41	Y41	Z41	X42	Y42	Z42	X43	Y43	Z43	X44	Y44	Z44	X45	Y45	Z45	X46	Y46	Z46	X47	Y47	Z47	X48	Y48	Z48	X49	Y49	Z49	X50	Y50	Z50	X51	Y51	Z51	X52	Y52	Z52	X53	Y53	Z53	X54	Y54	Z54	X55	Y55	Z55	X56	Y56	Z56	X57	Y57	Z57	

1	0	-1491.226684570312	985.207275390625	-76.70124053955078	-1494.077270507812	1034.70361328125	-8.74476146697998	-1276.812255859375	1237.5595703125	-16.06188583374023	-1517.061645507812	1153.603393554688	-23.1929931640625	-1491.88134765625	1403.3193359375	-42.69071197509766	-1330.119750976562	1359.081665039062	-24.30222511291504	-1531.824951171875	1263.188232421875	26.40963554382324	-1491.070190429688	1364.114135742188	-143.2519378662109	-1403.085571289062	1387.202392578125	-193.4511871337891	-1411.384521484375	1265.569213867188	-260.3421630859375	-1388.000732421875	1061.30126953125	-264.1383361816406	-1452.41748046875	1048.533813476562	-209.8865966796875	-1292.068237304688	818.0534057617188	-212.0107879638672	-1331.578857421875	807.0353393554688	-269.2682495117188	-1371.394775390625	957.0919799804688	-268.0856018066406	-1335.219360351562	736.5808715820312	-262.7832946777344	-1444.364379882812	1397.816162109375	125.088264465332	-1455.439453125	1333.904541015625	189.3271026611328	-1428.929443359375	1066.407958984375	228.5586853027344	-1465.720947265625	1055.861083984375	141.3505554199219	-1303.4443359375	845.0885620117188	188.113037109375	-1341.042236328125	828.7946166992188	253.7762603759766	-1399.521118164062	1000.60546875	238.38818359375	-1280.295532226562	672.4673461914062	203.0921173095703	-1270.567260742188	745.4961547851562	204.4912109375	-1321.750610351562	745.93115234375	252.266845703125	-1482.080078125	1606.39013671875	32.43852233886719	-1294.6982421875	1643.119384765625	-53.8032112121582	-1323.494995117188	1641.24951171875	43.46778869628906	-1466.682983398438	1599.182739257812	-111.7803344726562	-1401.92822265625	927.2406616210938	-178.2437438964844	-1310.050903320312	961.7149658203125	122.3602142333984	-1282.495849609375	956.89599609375	-115.8625030517578	-1369.50439453125	470.9932556152344	-164.3575744628906	-1364.064208984375	609.8345336914062	-171.0833587646484	-1445.788818359375	47.48091888427734	-145.5597534179688	-1409.350219726562	253.8757934570312	-166.1180725097656	-1240.776123046875	47.29322052001953	-79.36665344238281	-1309.391845703125	37.70536422729492	-41.11472702026367	-1317.8837890625	43.82890701293945	-155.4703826904297	-1479.680541992188	44.01949310302734	-78.16285705566406	-1392.265380859375	466.6661071777344	144.6037902832031	-1439.741455078125	53.41672897338867	113.9221420288086	-1384.443603515625	347.8100891113281	132.9678192138672	-1247.396240234375	48.38035202026367	63.8768424987793	-1301.60009765625	43.20673370361328	21.60689353942871	-1337.927856445312	41.13219451904297	134.140380859375	-1490.235717773438	51.31003570556641	64.88252258300781	-1492.895874023438	983.86962890625	51.98122406005859	-1348.502807617188	723.760986328125	169.8240356445312	-1417.33984375	932.1891479492188	165.0542602539062	-1283.100708007812	738.9859619140625	-227.8402404785156	-1293.497192382812	655.7952270507812	-208.0499725341797	nan	nan	nan	nan	nan	nan	nan	nan	nan	nan	nan	nan	
2	0.01	-1491.310668945312	985.2190551757812	-76.71873474121094	-1494.220581054688	1034.745971679688	-8.683530807495117	-1276.76220703125	1237.5458984375	-16.13681030273438	-1517.112915039062	1153.622314453125	-23.1375846862793	-1491.878662109375	1403.3486328125	-42.68148422241211	-1330.095947265625	1359.041259765625	-24.46681594848633	-1531.84423828125	1263.232666015625	26.45417022705078	-1491.175659179688	1364.157470703125	-143.2189483642578	-1403.254028320312	1387.24560546875	-193.5062713623047	-1411.522338867188	1265.623291015625	-260.3913879394531	-1387.969970703125	1061.358642578125	-264.3506774902344	-1452.364013671875	1048.5087890625	-210.1047821044922	-1291.829711914062	818.0640869140625	-212.3096466064453	-1331.2578125	807.19873046875	-269.63232421875	-1371.304321289062	957.206298828125	-268.3908996582031	-1334.8271484375	736.7525634765625	-263.2242736816406	-1444.166381835938	1397.869262695312	125.1321258544922	-1455.21923828125	1333.915649414062	189.3601531982422	-1428.755126953125	1066.351318359375	228.2750091552734	-1465.777709960938	1055.954467773438	141.0986175537109	-1303.412475585938	844.9854736328125	187.2076110839844	-1340.985107421875	828.5935668945312	252.9095916748047	-1399.359985351562	1000.528869628906	237.8767700195312	-1280.413208007812	672.3817749023438	201.8990020751953	-1270.809204101562	745.0123291015625	203.1207885742188	-1321.696655273438	745.6673583984375	251.2587432861328	-1482.025268554688	1606.35205078125	32.44606018066406	-1294.715698242188	1643.15625	-53.96785736083984	-1323.463623046875	1641.252807617188	43.36055755615234	-1466.746826171875	1599.176025390625	-111.7651748657227	-1402.02783203125	927.2279052734375	-178.2190856933594	-1310.103515625	961.7345581054688	122.2629547119141	-1282.632690429688	956.8527221679688	-115.9655227661133	-1369.58447265625	470.9709167480469	-164.3922119140625	-1364.21826171875	609.8422241210938	-171.1249542236328	-1445.794555664062	47.47199630737305	-145.5506286621094	-1409.388061523438	253.8647003173828	-166.1354370117188	-1240.82958984375	47.33633804321289	-79.39817810058594	-1309.40478515625	37.73251724243164	-41.12380599975586	-1317.884399414062	43.82926940917969	-155.4741821289062	-1479.680297851562	44.01314163208008	-78.16445922851562	-1392.334350585938	466.6820678710938	144.5704650878906	-1439.746215820312	53.41795349121094	113.9311599731445	-1384.500122070312	347.8245239257812	132.9763641357422	-1247.384521484375	48.38668823242188	63.88583374023438	-1301.606811523438	43.21702194213867	21.62556457519531	-1337.929931640625	41.1296501159668	134.1432342529297	-1490.246826171875	51.31134033203125	64.88214111328125	-1492.965698242188	983.889892578125	52.01465606689453	-1348.514282226562	723.7069091796875	169.6420745849609	-1417.439331054688	932.283203125	164.9718933105469	-1282.635620117188	739.3131713867188	-228.0579986572266	-1292.891845703125	656.1272583007812	-208.2276306152344	nan	nan	nan	nan	nan	nan	nan	nan	nan	nan	nan	nan	
3	0.02	-1491.421142578125	985.2303466796875	-76.73122406005859	-1494.41162109375	1034.79931640625	-8.608623504638672	-1276.706420898438	1237.517456054688	-16.24736022949219	-1517.191040039062	1153.652465820312	-23.06453514099121	-1491.872192382812	1403.390014648438	-42.66980361938477	-1330.068237304688	1358.987915039062	-24.6734504699707	-1531.867431640625	1263.292236328125	26.50701522827148	-1491.304443359375	1364.209228515625	-143.1818084716797	-1403.4482421875	1387.292358398438	-193.5718994140625	-1411.680419921875	1265.685668945312	-260.44970703125	-1387.941528320312	1061.426147460938	-264.6302795410156	-1452.287231445312	1048.470581054688	-210.3831481933594	-1291.502197265625	818.0945434570312	-212.6770935058594	-1330.825805664062	807.4014892578125	-270.0824584960938	-1371.160278320312	957.3397827148438	-268.7659912109375	-1334.26171875	736.9542846679688	-263.7405395507812	-1443.933715820312	1397.935668945312	125.1748199462891	-1454.957885742188	1333.924560546875	189.3979797363281	-1428.545654296875	1066.270263671875	227.908935546875	-1465.854125976562	1056.069213867188	140.7847900390625	-1303.411254882812	844.8438110351562	186.0642395019531	-1340.898559570312	828.3563842773438	251.8192749023438	-1399.170043945312	1000.437438964844	237.2338562011719	-1280.600219726562	672.2715454101562	200.4020690917969	-1271.16259765625	744.4008178710938	201.3885345458984	-1321.619018554688	745.3783569335938	249.9864959716797	-1481.9541015625	1606.3017578125	32.45620346069336	-1294.740234375	1643.204711914062	-54.16890716552734	-1323.400512695312	1641.252197265625	43.20350646972656	-1466.82421875	1599.164672851562	-111.7490768432617	-1402.180908203125	927.2138671875	-178.1990051269531	-1310.176147460938	961.75927734375	122.1436614990234	-1282.842407226562	956.796875	-116.1111450195312	-1369.695068359375	470.9442749023438	-164.4371643066406	-1364.417724609375	609.8548583984375	-171.1760406494141	-1445.80078125	47.46212005615234	-145.5417938232422	-1409.435546875	253.8504180908203	-166.1548767089844	-1240.886962890625	47.3872184753418	-79.43462371826172	-1309.420043945312	37.75891876220703	-41.13383865356445	-1317.88427734375	43.83037567138672	-155.4801330566406	-1479.679321289062	44.00516891479492	-78.16968536376953	-1392.409790039062	466.6955871582031	144.5196380615234	-1439.7548828125	53.42159652709961	113.9455108642578	-1384.565307617188	347.8397216796875	132.9821472167969	-1247.369995117188	48.39459228515625	63.89963531494141	-1301.61328125	43.23588562011719	21.64620971679688	-1337.932006835938	41.1280403137207	134.1464996337891	-1490.261474609375	51.3125	64.88388824462891	-1493.06640625	983.92578125	52.06710815429688	-1348.521728515625	723.6293334960938	169.4205169677734	-1417.563598632812	932.391845703125	164.8766632080078	-1282.023803710938	739.6826171875	-228.3685607910156	-1292.103271484375	656.5027465820312	-208.4877014160156	nan	nan	nan	nan	nan	nan	nan	nan	nan	nan	nan	nan	
4	0.03	-1491.555419921875	985.2374877929688	-76.73388671875	-1494.646240234375	1034.861572265625	-8.527035713195801	-1276.654541015625	1237.469604492188	-16.39716911315918	-1517.298217773438	1153.695922851562	-22.97335433959961	-1491.860107421875	1403.444213867188	-42.65652084350586	-1330.039428710938	1358.923461914062	-24.91224098205566	-1531.892578125	1263.365356445312	26.56407928466797	-1491.449340820312	1364.266723632812	-143.1437835693359	-1403.653198242188	1387.337280273438	-193.6441955566406	-1411.846435546875	1265.7509765625	-260.5141906738281	-1387.916381835938	1061.4990234375	-264.9700927734375	-1452.185791015625	1048.417358398438	-210.7123870849609	-1291.091796875	818.1517944335938	-213.0928649902344	-1330.286499023438	807.6331176757812	-270.5939331054688	-1370.95751953125	957.4813232421875	-269.1923828125	-1333.520263671875	737.1741333007812	-264.2958068847656	-1443.683349609375	1398.0126953125	125.2092361450195	-1454.671508789062	1333.928344726562	189.4370422363281	-1428.318115234375	1066.166381835938	227.4762725830078	-1465.9501953125	1056.199829101562	140.4246063232422	-1303.4658203125	844.6682739257812	184.7252349853516	-1340.781372070312	828.0983276367188	250.5509796142578	-1398.961547851562	1000.335327148438	236.4883270263672	-1280.856811523438	672.1339111328125	198.6495361328125	-1271.628540039062	743.7166748046875	199.4016723632812	-1321.520385742188	745.093994140625	248.4962768554688	-1481.86962890625	1606.2421875	32.46775436401367	-1294.772583007812	1643.263549804688	-54.39454650878906	-1323.294921875	1641.24609375	42.99066162109375	-1466.910278320312	1599.149291992188	-111.7352066040039	-1402.396606445312	927.2007446289062	-178.1904602050781	-1310.269897460938	961.7879028320312	122.0095825195312	-1283.129638671875	956.7315673828125	-116.2962875366211	-1369.836303710938	470.9154663085938	-164.4916381835938	-1364.656127929688	609.873046875	-171.23388671875	-1445.80712890625	47.4514045715332	-145.5343475341797	-1409.490966796875	253.8336944580078	-166.1746063232422	-1240.934936523438	47.4381103515625	-79.46976470947266	-1309.435424804688	37.78248977661133	-41.14495086669922	-1317.883056640625	43.83245468139648	-155.4879608154297	-1479.67724609375	43.99633407592773	-78.17904663085938	-1392.481811523438	466.7044372558594	144.4501953125	-1439.76806640625	53.42824172973633	113.9663696289062	-1384.63232421875	347.8537902832031	132.9826965332031	-1247.353393554688	48.40409088134766	63.91794204711914	-1301.61865234375	43.2654914855957	21.66820335388184	-1337.93408203125	41.1271858215332	134.150146484375	-1490.278930664062	51.3134880065918	64.88851165771484	-1493.20068359375	983.9798583984375	52.14064407348633	-1348.53466796875	723.5366821289062	169.1881408691406	-1417.703857421875	932.5062866210938	164.7767333984375	-1281.277221679688	740.0662841796875	-228.7655944824219	-1291.150634765625	656.8934936523438	-208.8258666992188	nan	nan	nan	nan	nan	nan	nan	nan	nan	nan	nan	nan	
